<svg width="45" height="45" viewBox="0 0 45 45" fill="none" xmlns="http://www.w3.org/2000/svg">
<g id="health_and_safety_FILL0_wght300_GRAD0_opsz48 3">
<path id="Vector" d="M27.5238 38.2034C25.8335 38.0951 24.1372 37.705 22.435 37.0332C20.7328 36.3613 19.1777 35.3776 17.7696 34.082C16.3616 32.7865 15.1779 31.1477 14.2185 29.1655C13.2592 27.1834 12.6792 24.8299 12.4788 22.105L12.3862 20.8002L13.657 20.7672C14.8613 20.7375 16.2306 20.9524 17.765 21.4119C19.2994 21.8714 20.6192 22.4761 21.7243 23.226C21.765 21.1275 22.1734 18.9218 22.9494 16.6088C23.7255 14.2958 24.7156 12.3109 25.9199 10.6539C27.2796 12.1859 28.4584 14.0699 29.4562 16.3061C30.454 18.5423 31.0752 20.7027 31.3198 22.7873C32.3212 22.0042 33.5524 21.2877 35.0134 20.6377C36.4744 19.9878 37.8298 19.6178 39.0794 19.5279L40.3763 19.4357L40.4125 20.7722C40.4938 23.2325 40.2136 25.4419 39.5719 27.4006C38.9302 29.3594 38.0277 31.0612 36.8644 32.5063C35.7011 33.9513 34.317 35.1482 32.7121 36.0969C31.1073 37.0457 29.3778 37.7478 27.5238 38.2034ZM27.6679 36.4632C27.1716 31.9504 25.6892 28.585 23.2207 26.367C20.7521 24.149 17.7552 22.8509 14.2299 22.4725C14.7647 27.14 16.3065 30.5697 18.8554 32.7616C21.4044 34.9535 24.3418 36.1874 27.6679 36.4632ZM26.7508 28.175C27.0497 27.488 27.4781 26.7541 28.0362 25.9733C28.5942 25.1925 29.1492 24.5374 29.7012 24.0081C29.7154 22.3186 29.3808 20.6065 28.6972 18.8718C28.0136 17.1371 27.1364 15.3925 26.0654 13.638C25.1701 15.4883 24.4666 17.31 23.955 19.103C23.4434 20.8959 23.2769 22.6325 23.4554 24.3126C24.0562 24.7857 24.6575 25.3868 25.2592 26.1159C25.8609 26.845 26.3581 27.5313 26.7508 28.175ZM29.3469 35.8277C30.5609 35.3222 31.7309 34.6879 32.8569 33.9248C33.983 33.1617 34.9745 32.2062 35.8315 31.0582C36.6886 29.9102 37.3813 28.532 37.9096 26.9237C38.438 25.3154 38.7027 23.434 38.704 21.2795C36.1055 21.8042 33.8321 22.8536 31.8839 24.4278C29.9355 26.0019 28.5707 27.8717 27.7894 30.0371C28.1348 30.9401 28.4348 31.8328 28.6894 32.715C28.944 33.5972 29.1632 34.6348 29.3469 35.8277Z" fill="white"/>
</g>
</svg>
