<svg width="422" height="638" viewBox="0 0 422 638" fill="none" xmlns="http://www.w3.org/2000/svg">
<path d="M319.595 337.949C315.791 343.865 303.153 338.913 304.469 326.21C304.578 314.172 322.451 299.89 343.039 307.74C363.383 313.907 379.255 344.694 364.974 373.166C352.767 401.726 309.15 419.185 272.704 398.371C235.918 380.103 216.667 323.533 243.964 279.255C268.213 234.21 337.719 213.532 389.93 247.318C443.267 277.694 465.71 360.034 425.479 420.121C389.136 481.627 293.862 505.607 225.815 458.791C155.94 416.318 130.266 308.161 183.46 232.301C231.91 154.283 352.919 127.103 436.819 186.898C523.133 241.465 552.197 375.412 485.984 467.076C425.482 561.574 278.615 591.998 178.926 519.211C76.0628 452.54 43.8008 292.814 122.955 185.346C195.561 74.3971 368.18 40.6768 483.709 126.477C603.083 205.226 638.615 390.801 546.489 514.031C461.803 641.515 263.384 678.385 132.035 579.633C-3.80913 488.778 -42.6852 277.433 62.4499 138.39C159.224 -5.5431 383.436 -45.707 530.599 66.0564" stroke="#E0AB21" stroke-width="3" stroke-linecap="round"/>
</svg>
