<svg width="136" height="128" viewBox="0 0 136 128" fill="none" xmlns="http://www.w3.org/2000/svg">
<path d="M71.7585 60.0823C73.1636 60.4529 72.9958 63.2522 70.4154 63.8031C68.0426 64.5488 64.0968 61.9464 64.3277 57.4C64.2431 53.0088 69.2823 47.9277 75.7878 48.9199C82.1786 49.4989 88.3893 56.9585 86.6213 65.4474C85.3752 73.841 75.4842 81.2293 65.043 78.6862C54.6451 76.791 46.152 64.4489 49.4649 52.0349C52.0357 39.617 66.7877 29.9593 81.1602 34.0368C95.564 37.2599 106.348 54.4559 101.484 70.8122C97.5891 87.2513 77.9692 99.1892 59.6706 93.5692C41.2505 89.0189 28.1976 66.9693 34.6026 46.67C39.8264 26.2297 64.2987 11.9819 86.5327 19.1537C108.96 25.0222 124.298 51.9472 116.346 76.1771C109.798 100.641 80.4628 117.16 54.2982 108.452C27.8669 101.253 10.2399 69.4775 19.7401 41.3051C27.6096 12.8264 61.8161 -5.98218 91.9051 4.27052C122.356 12.7899 142.246 49.4355 131.208 81.5421C122.009 114.029 82.9514 135.137 48.9258 123.336C14.4719 113.489 -7.70921 71.9839 4.87768 35.9401" stroke="#E0AB21" stroke-width="1.5" stroke-linecap="round"/>
</svg>
