<svg width="42" height="42" viewBox="0 0 42 42" fill="none" xmlns="http://www.w3.org/2000/svg">
<g id="health_and_safety_FILL0_wght300_GRAD0_opsz48 1">
<path id="Vector" d="M20.9471 35.9389C19.053 35.9389 17.446 35.279 16.1262 33.9592C14.8064 32.6394 14.1465 31.0325 14.1465 29.1383C14.1465 27.8894 14.4615 26.72 15.0914 25.6301C15.7213 24.5403 16.6084 23.7273 17.7528 23.1911L17.7528 8.53051C17.7528 7.61413 18.0589 6.85265 18.6713 6.24606C19.2837 5.63947 20.0397 5.33618 20.9394 5.33618C21.8391 5.33618 22.5977 5.63947 23.2152 6.24606C23.8327 6.85265 24.1414 7.61413 24.1414 8.53051L24.1414 23.1911C25.2858 23.7273 26.1729 24.5379 26.8028 25.623C27.4327 26.7081 27.7477 27.8799 27.7477 29.1383C27.7477 31.0325 27.0878 32.6394 25.768 33.9592C24.4482 35.279 22.8412 35.9389 20.9471 35.9389ZM19.0606 19.6731L22.8336 19.6731L22.8336 16.8972L20.9471 16.8972L20.9471 15.5992L22.8336 15.5992L22.8336 11.6725L20.9471 11.6725L20.9471 10.3958L22.8336 10.3958L22.8336 8.53051C22.8336 7.99599 22.6523 7.54794 22.2898 7.18637C21.9272 6.82478 21.4779 6.64398 20.9419 6.64398C20.4059 6.64398 19.9583 6.82478 19.5992 7.18637C19.2401 7.54794 19.0606 7.99599 19.0606 8.53051L19.0606 19.6731Z" fill="white"/>
</g>
</svg>
