<svg width="46" height="46" viewBox="0 0 46 46" fill="none" xmlns="http://www.w3.org/2000/svg">
<g id="health_and_safety_FILL0_wght300_GRAD0_opsz48 2">
<path id="Vector" d="M21.098 28.2441H24.4526V23.5039H29.1928V20.1493H24.4526V15.4091H21.098V20.1493H16.3578V23.5039H21.098V28.2441ZM22.7753 40.7218C18.655 39.5915 15.2548 37.1393 12.5748 33.3654C9.89472 29.5915 8.55469 25.4122 8.55469 20.8275V10.1293L22.7753 4.80566L36.9959 10.1293V20.8275C36.9959 25.4122 35.6559 29.5915 32.9759 33.3654C30.2958 37.1393 26.8956 39.5915 22.7753 40.7218ZM22.7753 38.4757C26.3123 37.3235 29.208 35.1078 31.4627 31.8285C33.7173 28.5492 34.8446 24.8823 34.8446 20.8275V11.6278L22.7753 7.09183L10.706 11.6278V20.8275C10.706 24.8823 11.8333 28.5492 14.088 31.8285C16.3426 35.1078 19.2384 37.3235 22.7753 38.4757Z" fill="white"/>
</g>
</svg>
