<svg xmlns="http://www.w3.org/2000/svg" width="282" height="250" viewBox="0 0 282 250" fill="none">
  <path d="M93.7374 49.0168C91.1944 52.9717 82.7459 49.6613 83.6254 41.1693C83.6983 33.1214 95.6463 23.5737 109.41 28.8217C123.01 32.9439 133.62 53.5255 124.074 72.5593C115.913 91.6521 86.7543 103.324 62.3904 89.4096C37.7985 77.197 24.9288 39.3791 43.1772 9.77921C59.388 -20.3339 105.853 -34.1576 140.757 -11.571C176.413 8.73528 191.416 63.7804 164.522 103.949C140.226 145.067 76.5342 161.098 31.0445 129.801C-15.6681 101.407 -32.8313 29.1032 2.72934 -21.6105C35.1191 -73.766 116.015 -91.9363 172.103 -51.9627C229.804 -15.4838 249.235 74.0613 204.97 135.339C164.524 198.513 66.3414 218.851 -0.301482 170.192C-69.0667 125.622 -90.6343 18.8431 -37.7189 -53.0006C10.8194 -127.171 126.217 -149.713 203.449 -92.3547C283.252 -39.7099 307.006 84.3485 245.418 166.729C188.805 251.954 56.1595 276.602 -31.6485 210.585C-122.462 149.848 -148.451 8.561 -78.1671 -84.3906C-13.4727 -180.612 136.416 -207.462 234.796 -132.747" stroke="#E0AB21" stroke-width="2.00553" stroke-linecap="round"/>
</svg>