<svg width="221" height="715" viewBox="0 0 221 715" fill="none" xmlns="http://www.w3.org/2000/svg">
<path d="M-136.212 335.263C-128.294 337.352 -129.24 353.125 -143.78 356.23C-157.151 360.432 -179.385 345.768 -178.084 320.148C-178.561 295.404 -150.165 266.773 -113.506 272.364C-77.4945 275.626 -42.4971 317.661 -52.46 365.495C-59.4817 412.794 -115.217 454.427 -174.053 440.096C-232.645 429.417 -280.504 359.869 -261.836 289.916C-247.349 219.941 -164.222 165.521 -83.2329 188.497C-2.06801 206.659 58.6998 303.558 31.2886 395.726C9.34373 488.361 -101.214 555.63 -204.327 523.962C-308.124 498.321 -381.677 374.071 -345.585 259.685C-316.149 144.504 -178.247 64.2182 -52.9593 104.631C73.4172 137.7 159.847 289.422 115.037 425.957C78.1392 563.813 -87.1628 656.896 -234.6 607.828C-383.541 567.261 -482.868 388.205 -429.335 229.454C-384.99 68.9768 -192.237 -37.0095 -22.6858 20.7644C148.905 68.7713 260.985 275.269 198.789 456.189C146.952 639.253 -73.14 758.197 -264.874 691.695C-459.021 636.208 -584.011 402.329 -513.084 199.222" stroke="#E0AB21" stroke-width="8.10087" stroke-linecap="round"/>
</svg>
