<svg width="467" height="439" viewBox="0 0 467 439" fill="none" xmlns="http://www.w3.org/2000/svg">
<path d="M247.181 205.527C252.068 206.816 251.485 216.552 242.51 218.468C234.257 221.062 220.534 212.011 221.337 196.198C221.043 180.926 238.569 163.254 261.195 166.704C283.423 168.718 305.024 194.663 298.874 224.187C294.54 253.38 260.14 279.077 223.825 270.232C187.661 263.64 158.122 220.715 169.644 177.538C178.585 134.349 229.893 100.759 279.881 114.941C329.977 126.151 367.484 185.959 350.565 242.846C337.021 300.022 268.782 341.542 205.14 321.995C141.074 306.169 95.676 229.48 117.952 158.879C136.121 87.7874 221.236 38.2336 298.566 63.1769C376.568 83.5879 429.914 177.233 402.256 261.505C379.482 346.592 277.455 404.045 186.454 373.759C94.5256 348.72 33.2188 238.204 66.2607 140.22C93.631 41.1707 212.601 -24.2459 317.251 11.4132C423.16 41.0438 492.338 168.498 453.949 280.165C421.955 393.155 286.11 466.569 167.769 425.523C47.9377 391.275 -29.2085 246.921 14.5689 121.56" stroke="#E0AB21" stroke-width="3" stroke-linecap="round"/>
</svg>
